<svg width="100" height="35" viewBox="0 0 100 35" fill="none" xmlns="http://www.w3.org/2000/svg">
    <path
        d="M13.7761 13.557H5.47636L8.32406 20.1043H8.3484L14.7983 35H23.2197L13.7761 13.5814V13.557Z"
        fill="#ED1C24" />
    <path d="M16.4291 0H25.0209L24.8992 0.121697L8.3484 20.1043H0L16.4291 0Z" fill="#005BAA" />
    <path d="M13.8248 13.5327L14.774 5.20863L20.9075 4.91655L13.8248 13.5327Z" fill="#ED1C24" />
    <path d="M8.37274 20.0556L5.47636 13.411L13.8248 13.4597L8.37274 20.0556Z" fill="#7A1315" />
    <path
        d="M99.2555 17.9197H92.1898V11.2956L99.2956 11.2153L99.7372 7.72263H87.4525V19.7263C89.4197 19.7263 91.3467 19.7664 93.3139 19.8467C93.073 19.7263 92.8723 19.646 92.6314 19.5255C92.1095 19.2445 91.6277 18.9635 91.146 18.6022C90.6642 18.2409 90.2628 17.8394 89.9818 17.3175L90.0219 17.2372H90.1022C90.4635 17.6788 90.9051 18 91.3869 18.281C91.8686 18.562 92.3905 18.8029 92.9124 19.0036C93.4343 19.2044 93.9562 19.365 94.5182 19.5255C95.0401 19.6861 95.6022 19.8066 96.1241 19.927C96.365 19.9672 96.5256 20.208 96.4453 20.4088C96.4051 20.6095 96.2445 20.7299 96.0438 20.7701H96.0037C93.1533 20.8504 90.3029 20.9307 87.4525 20.9708V21.7737L89.0985 21.8139L91.3869 21.8942C91.5073 21.8942 91.5876 22.0146 91.5876 22.0949C91.5876 22.1752 91.5073 22.2555 91.427 22.2956C90.9051 22.4562 90.3832 22.6569 89.8613 22.8577C89.3394 23.0584 88.8175 23.2591 88.3358 23.5L88.2956 23.4599V23.4197C88.7774 23.1387 89.2591 22.8577 89.7409 22.6168C89.9015 22.5365 90.1022 22.4562 90.2628 22.3759L89.0584 22.4161L87.4124 22.4562V28.8796H92.1496V23.5803H98.292L99.2555 17.9197Z"
        fill="#ED1C24" />
    <path
        d="M82.9964 19.7664L78.3796 7L76.2117 7.64234V7.60219L74.6861 8.08394L69.9489 19.927L72.2774 19.8869L82.9964 19.7664ZM83.719 21.6934L83.438 20.9307L69.6679 20.7299L69.2263 21.854L73.1606 21.8139C76.2117 21.7737 79.2628 21.6934 82.2737 21.6934H83.719ZM81.3102 28.8394H86.2883L84 22.4562H82.2737C79.2226 22.4562 76.1715 22.3759 73.1606 22.3358L69.0255 22.2956L67.5803 25.8686H67.5401L66.3759 28.7993H70.6314L72.5985 23.4599H79.5036L81.3102 28.8394ZM76.1715 13.865L77.6168 17.9197H74.646L76.1715 13.865Z"
        fill="#ED1C24" />
    <path
        d="M33.7372 7.72263H29V29H33.7372V20.2482C33.7372 20.2482 33.7372 20.2482 33.7774 20.208V14.989L33.7372 15.0292V7.72263Z"
        fill="#005BAA" />
    <path
        d="M38.8759 14.7482C39.1971 14.427 39.4781 14.0657 39.7993 13.7847C40.0803 13.4635 40.3613 13.2226 40.6022 12.9817C41.4051 12.1788 42.1277 11.6168 42.7299 11.2555C43.292 10.9745 43.7737 10.8139 44.2956 10.8139H45.6204V8.16423L44.938 7.88321C44.7774 7.80292 44.5365 7.76277 44.2956 7.72263C44.0547 7.68248 43.8139 7.68248 43.5328 7.68248C42.9708 7.68248 42.4489 7.72263 42.0073 7.80292C41.5256 7.88321 41.0438 8.0438 40.6022 8.24453C40.1606 8.44526 39.719 8.72628 39.2774 9.08759C38.8759 9.40876 38.4343 9.81022 37.9526 10.292C37.7117 10.5328 37.4307 10.854 37.0694 11.2153C36.7482 11.5766 36.3869 11.9781 36.0255 12.3796C35.6642 12.781 35.2628 13.2226 34.9015 13.7044L34.1788 14.5876L37.5511 16.2737L37.9927 15.792C38.2336 15.4307 38.5548 15.0693 38.8759 14.7482Z"
        fill="#005BAA" />
    <path
        d="M62.3212 20.0474L57.6241 7L55.4562 7.64234V7.60219L53.9307 8.08394L49.0328 20.2482L60.3942 20.0474H62.3212ZM60.5146 28.8394H65.4927L63.1241 22.2555L54.8942 22.135L54.854 22.0949L54.8942 22.0547L63.0036 21.9343L62.5219 20.6496L60.3942 20.6095L48.9525 20.4088L46.7445 25.9088H45.5401C45.1788 25.9088 44.8175 25.7883 44.4562 25.5876C44.0146 25.3467 43.5329 24.9854 43.0912 24.5438C42.6095 24.062 42.0876 23.5 41.6058 22.8175C41.0839 22.135 40.6022 21.4124 40.0803 20.6095C39.5985 19.8066 39.0766 19.0036 38.5949 18.1204C38.2336 17.4781 37.8723 16.8358 37.5109 16.1934L34.1788 19.7664C34.3796 20.1277 34.6204 20.4891 34.8212 20.8905C35.3029 21.7336 35.7445 22.4963 36.2263 23.2591C36.708 24.0219 37.1898 24.7847 37.6715 25.427C38.1934 26.1095 38.7153 26.7518 39.2372 27.2737C39.7993 27.8358 40.4015 28.2774 41.0438 28.5985C41.1642 28.6788 41.2847 28.719 41.4453 28.7591H49.8759L51.8431 23.4197H58.7482L60.5146 28.8394ZM55.3759 13.865L56.8212 17.9197H53.8504L55.3759 13.865Z"
        fill="#005BAA" />
</svg>